<?xml version="1.0" encoding="UTF-8" standalone="no"?>
<!DOCTYPE svg PUBLIC "-//W3C//DTD SVG 1.1//EN"
 "http://www.w3.org/Graphics/SVG/1.1/DTD/svg11.dtd">
<!-- Generated by graphviz version 2.40.1 (20161225.0304)
 -->
<!-- Title: models_diagram Pages: 1 -->
<svg width="654pt" height="181pt"
 viewBox="0.00 0.00 653.55 181.00" xmlns="http://www.w3.org/2000/svg" xmlns:xlink="http://www.w3.org/1999/xlink">
<g id="graph0" class="graph" transform="scale(1 1) rotate(0) translate(4 177)">
<title>models_diagram</title>
<polygon fill="transparent" stroke="transparent" points="-4,4 -4,-177 649.55,-177 649.55,4 -4,4"/>
<!-- _diagram_info -->
<g id="node1" class="node">
<title>_diagram_info</title>
<text text-anchor="start" x="8" y="-144.6" font-family="Times,serif" font-size="13.00" fill="#000000">Models diagram</text>
<text text-anchor="start" x="8" y="-131.6" font-family="Times,serif" font-size="13.00" fill="#000000">Date: Jul 05 2017 &#45; 21:08</text>
<text text-anchor="start" x="8" y="-118.6" font-family="Times,serif" font-size="13.00" fill="#000000">Migration version: 20170706005928</text>
<text text-anchor="start" x="8" y="-105.6" font-family="Times,serif" font-size="13.00" fill="#000000">Generated by RailRoady 1.5.3</text>
<text text-anchor="start" x="8" y="-92.6" font-family="Times,serif" font-size="13.00" fill="#000000">http://railroady.prestonlee.com</text>
</g>
<!-- ApplicationRecord -->
<g id="node2" class="node">
<title>ApplicationRecord</title>
<ellipse fill="none" stroke="#000000" cx="302.6877" cy="-122.5" rx="77.2916" ry="18"/>
<text text-anchor="middle" x="302.6877" y="-118.3" font-family="Times,serif" font-size="14.00" fill="#000000">ApplicationRecord</text>
</g>
<!-- User -->
<g id="node3" class="node">
<title>User</title>
<path fill="none" stroke="#000000" d="M409.8254,-72.5C409.8254,-72.5 633.55,-72.5 633.55,-72.5 639.55,-72.5 645.55,-78.5 645.55,-84.5 645.55,-84.5 645.55,-160.5 645.55,-160.5 645.55,-166.5 639.55,-172.5 633.55,-172.5 633.55,-172.5 409.8254,-172.5 409.8254,-172.5 403.8254,-172.5 397.8254,-166.5 397.8254,-160.5 397.8254,-160.5 397.8254,-84.5 397.8254,-84.5 397.8254,-78.5 403.8254,-72.5 409.8254,-72.5"/>
<text text-anchor="middle" x="521.6877" y="-157.3" font-family="Times,serif" font-size="14.00" fill="#000000">User</text>
<polyline fill="none" stroke="#000000" points="397.8254,-150.5 645.55,-150.5 "/>
<text text-anchor="start" x="405.8254" y="-135.3" font-family="Times,serif" font-size="14.00" fill="#000000">id :integer</text>
<text text-anchor="start" x="405.8254" y="-121.3" font-family="Times,serif" font-size="14.00" fill="#000000">nombre :character varying</text>
<text text-anchor="start" x="405.8254" y="-107.3" font-family="Times,serif" font-size="14.00" fill="#000000">email :character varying</text>
<text text-anchor="start" x="405.8254" y="-93.3" font-family="Times,serif" font-size="14.00" fill="#000000">created_at :timestamp without time zone</text>
<text text-anchor="start" x="405.8254" y="-79.3" font-family="Times,serif" font-size="14.00" fill="#000000">updated_at :timestamp without time zone</text>
</g>
<!-- Tweet -->
<g id="node4" class="node">
<title>Tweet</title>
<ellipse fill="none" stroke="#000000" cx="521.6877" cy="-18" rx="31.6703" ry="18"/>
<text text-anchor="middle" x="521.6877" y="-13.8" font-family="Times,serif" font-size="14.00" fill="#000000">Tweet</text>
</g>
<!-- User&#45;&gt;Tweet -->
<g id="edge1" class="edge">
<title>User&#45;&gt;Tweet</title>
<path fill="none" stroke="#966958" d="M521.6877,-64.1785C521.6877,-57.9652 521.6877,-51.8679 521.6877,-46.2447"/>
<ellipse fill="none" stroke="#966958" cx="521.6878" cy="-68.3925" rx="4" ry="4"/>
<polygon fill="#966958" stroke="#966958" points="521.6878,-46.1093 526.1877,-36.1092 521.6878,-41.1093 521.6877,-36.1093 521.6877,-36.1093 521.6877,-36.1093 521.6878,-41.1093 517.1877,-36.1093 521.6878,-46.1093 521.6878,-46.1093"/>
</g>
</g>
</svg>
